<?xml version="1.0" encoding="UTF-8"?>
<!DOCTYPE svg PUBLIC "-//W3C//DTD SVG 1.1//EN" "http://www.w3.org/Graphics/SVG/1.1/DTD/svg11.dtd">
<svg xmlns="http://www.w3.org/2000/svg" version="1.1" width="140px" height="139px" style="shape-rendering:geometricPrecision; text-rendering:geometricPrecision; image-rendering:optimizeQuality; fill-rule:evenodd; clip-rule:evenodd" xmlns:xlink="http://www.w3.org/1999/xlink">
<g><path style="opacity:0.208" fill="#d2d8fc" d="M 76.5,-0.5 C 77.5,-0.5 78.5,-0.5 79.5,-0.5C 78.4863,0.673734 77.153,1.3404 75.5,1.5C 75.8333,0.833333 76.1667,0.166667 76.5,-0.5 Z"/></g>
<g><path style="opacity:0.075" fill="#d6d9fc" d="M 86.5,-0.5 C 87.8333,-0.5 89.1667,-0.5 90.5,-0.5C 92.8835,0.88507 94.5501,2.88507 95.5,5.5C 92.6351,3.23872 89.6351,1.23872 86.5,-0.5 Z"/></g>
<g><path style="opacity:0.98" fill="#5b5bd7" d="M 84.5,-0.5 C 85.1667,-0.5 85.8333,-0.5 86.5,-0.5C 89.6351,1.23872 92.6351,3.23872 95.5,5.5C 95.5,6.16667 95.5,6.83333 95.5,7.5C 95.1667,7.5 94.8333,7.5 94.5,7.5C 92.8073,4.31823 90.1407,2.65156 86.5,2.5C 85.8333,1.5 85.1667,0.5 84.5,-0.5 Z"/></g>
<g><path style="opacity:0.286" fill="#d2d8fe" d="M 75.5,1.5 C 75.1667,2.16667 74.8333,2.83333 74.5,3.5C 73.5,4.16667 72.5,4.83333 71.5,5.5C 71.8333,3.16667 73.1667,1.83333 75.5,1.5 Z"/></g>
<g><path style="opacity:1" fill="#4a4ffc" d="M 86.5,2.5 C 90.1407,2.65156 92.8073,4.31823 94.5,7.5C 93.8905,12.8123 93.3905,18.1456 93,23.5C 92.3333,19.5 91.6667,19.5 91,23.5C 88.397,21.5638 86.5637,19.0638 85.5,16C 87.0016,15.4169 88.3349,14.5836 89.5,13.5C 86.9356,13.6294 84.2689,13.296 81.5,12.5C 80.6509,10.1065 79.6509,7.77312 78.5,5.5C 80.5655,2.34591 83.2322,1.34591 86.5,2.5 Z"/></g>
<g><path style="opacity:1" fill="#4d59fb" d="M 95.5,14.5 C 96.4924,22.3159 96.8257,30.3159 96.5,38.5C 95.596,39.209 95.2627,40.209 95.5,41.5C 94.6981,40.0484 94.1981,38.3817 94,36.5C 93.2825,37.4506 92.4491,37.6172 91.5,37C 89.3647,33.5204 87.198,30.0204 85,26.5C 82.0935,25.7562 79.9268,24.0895 78.5,21.5C 76.7417,17.6462 74.7417,13.9795 72.5,10.5C 74.8512,9.41108 76.8512,10.0778 78.5,12.5C 78.0233,13.4776 77.3567,14.3109 76.5,15C 77.5,15.3333 78.5,15.6667 79.5,16C 81,18.8333 83.1667,21 86,22.5C 87.5588,24.2166 88.3921,26.2166 88.5,28.5C 91.3455,28.8087 92.8455,30.4754 93,33.5C 93.9745,31.1224 94.6411,31.4557 95,34.5C 95.4996,27.8417 95.6663,21.175 95.5,14.5 Z"/></g>
<g><path style="opacity:1" fill="#4a53fa" d="M 79.5,-0.5 C 81.1667,-0.5 82.8333,-0.5 84.5,-0.5C 85.1667,0.5 85.8333,1.5 86.5,2.5C 83.2322,1.34591 80.5655,2.34591 78.5,5.5C 79.6509,7.77312 80.6509,10.1065 81.5,12.5C 84.2689,13.296 86.9356,13.6294 89.5,13.5C 88.3349,14.5836 87.0016,15.4169 85.5,16C 86.5637,19.0638 88.397,21.5638 91,23.5C 91.6667,19.5 92.3333,19.5 93,23.5C 93.3905,18.1456 93.8905,12.8123 94.5,7.5C 94.8333,7.5 95.1667,7.5 95.5,7.5C 95.5,9.83333 95.5,12.1667 95.5,14.5C 95.6663,21.175 95.4996,27.8417 95,34.5C 94.6411,31.4557 93.9745,31.1224 93,33.5C 92.8455,30.4754 91.3455,28.8087 88.5,28.5C 88.3921,26.2166 87.5588,24.2166 86,22.5C 83.1667,21 81,18.8333 79.5,16C 78.5,15.6667 77.5,15.3333 76.5,15C 77.3567,14.3109 78.0233,13.4776 78.5,12.5C 76.8512,10.0778 74.8512,9.41108 72.5,10.5C 72.5,9.83333 72.5,9.16667 72.5,8.5C 73.1667,6.83333 73.8333,5.16667 74.5,3.5C 74.8333,2.83333 75.1667,2.16667 75.5,1.5C 77.153,1.3404 78.4863,0.673734 79.5,-0.5 Z"/></g>
<g><path style="opacity:0.021" fill="#f8fcfe" d="M 68.5,14.5 C 68.1682,50.6705 68.5016,86.6705 69.5,122.5C 69.7266,126.181 71.3933,128.848 74.5,130.5C 74.5569,131.609 74.8902,132.609 75.5,133.5C 71.3433,131.565 68.8433,128.231 68,123.5C 67.169,86.9977 67.3356,50.6644 68.5,14.5 Z"/></g>
<g><path style="opacity:1" fill="#4e60fd" d="M 72.5,8.5 C 72.5,9.16667 72.5,9.83333 72.5,10.5C 74.7417,13.9795 76.7417,17.6462 78.5,21.5C 79.9268,24.0895 82.0935,25.7562 85,26.5C 87.198,30.0204 89.3647,33.5204 91.5,37C 92.4491,37.6172 93.2825,37.4506 94,36.5C 94.1981,38.3817 94.6981,40.0484 95.5,41.5C 95.5,43.1667 95.5,44.8333 95.5,46.5C 88.4649,39.4601 82.1316,31.7934 76.5,23.5C 75.4116,22.0656 74.0783,21.0656 72.5,20.5C 71.1667,16.5 71.1667,12.5 72.5,8.5 Z"/></g>
<g><path style="opacity:1" fill="#4f67fd" d="M 72.5,20.5 C 74.0783,21.0656 75.4116,22.0656 76.5,23.5C 82.1316,31.7934 88.4649,39.4601 95.5,46.5C 95.6602,48.1992 95.4935,49.8659 95,51.5C 92.2917,47.6862 88.9583,44.6862 85,42.5C 83.3333,39.5 81.6667,36.5 80,33.5C 75.1193,30.4717 72.6193,26.1384 72.5,20.5 Z"/></g>
<g><path style="opacity:0.212" fill="#c0c8fc" d="M 95.5,5.5 C 96.9663,6.347 97.7996,7.68034 98,9.5C 98.4998,20.495 98.6665,31.495 98.5,42.5C 98.8301,60.6744 98.4968,78.6744 97.5,96.5C 97.5,92.8333 97.5,89.1667 97.5,85.5C 97.6666,60.8311 97.5,36.1644 97,11.5C 96.79,9.94186 96.29,8.60853 95.5,7.5C 95.5,6.83333 95.5,6.16667 95.5,5.5 Z"/></g>
<g><path style="opacity:1" fill="#5375fd" d="M 71.5,30.5 C 73.4741,32.428 74.9741,34.7613 76,37.5C 80.0071,39.6857 82.8405,43.019 84.5,47.5C 87.0094,48.9213 89.3428,50.5879 91.5,52.5C 92.086,52.2907 92.586,51.9574 93,51.5C 93.9132,54.352 93.0799,56.5186 90.5,58C 91.4158,58.2784 92.0825,58.7784 92.5,59.5C 88.7322,59.9326 85.3989,61.266 82.5,63.5C 83.5817,62.4062 84.2483,61.0729 84.5,59.5C 83.4231,57.8314 83.2564,56.1647 84,54.5C 81.1365,52.2942 78.3031,50.1275 75.5,48C 75.0005,45.4788 73.6672,43.6455 71.5,42.5C 71.5,38.5 71.5,34.5 71.5,30.5 Z"/></g>
<g><path style="opacity:1" fill="#536bf9" d="M 74.5,3.5 C 73.8333,5.16667 73.1667,6.83333 72.5,8.5C 71.1667,12.5 71.1667,16.5 72.5,20.5C 72.6193,26.1384 75.1193,30.4717 80,33.5C 81.6667,36.5 83.3333,39.5 85,42.5C 88.9583,44.6862 92.2917,47.6862 95,51.5C 95.4935,49.8659 95.6602,48.1992 95.5,46.5C 95.5,44.8333 95.5,43.1667 95.5,41.5C 95.2627,40.209 95.596,39.209 96.5,38.5C 96.5,49.5 96.5,60.5 96.5,71.5C 96.1667,71.5 95.8333,71.5 95.5,71.5C 95.5,67.5 95.5,63.5 95.5,59.5C 94.5,59.5 93.5,59.5 92.5,59.5C 92.0825,58.7784 91.4158,58.2784 90.5,58C 93.0799,56.5186 93.9132,54.352 93,51.5C 92.586,51.9574 92.086,52.2907 91.5,52.5C 89.3428,50.5879 87.0094,48.9213 84.5,47.5C 82.8405,43.019 80.0071,39.6857 76,37.5C 74.9741,34.7613 73.4741,32.428 71.5,30.5C 70.6279,24.2111 70.2946,17.8778 70.5,11.5C 70.5172,9.43525 70.8505,7.43525 71.5,5.5C 72.5,4.83333 73.5,4.16667 74.5,3.5 Z"/></g>
<g><path style="opacity:0.808" fill="#626bd1" d="M 95.5,7.5 C 96.29,8.60853 96.79,9.94186 97,11.5C 97.5,36.1644 97.6666,60.8311 97.5,85.5C 97.1667,85.5 96.8333,85.5 96.5,85.5C 96.5,80.8333 96.5,76.1667 96.5,71.5C 96.5,60.5 96.5,49.5 96.5,38.5C 96.8257,30.3159 96.4924,22.3159 95.5,14.5C 95.5,12.1667 95.5,9.83333 95.5,7.5 Z"/></g>
<g><path style="opacity:0.286" fill="#c0d3fd" d="M 71.5,5.5 C 70.8505,7.43525 70.5172,9.43525 70.5,11.5C 69.5026,33.327 69.1693,55.327 69.5,77.5C 69.5,81.5 69.5,85.5 69.5,89.5C 69.5,99.1667 69.5,108.833 69.5,118.5C 69.5,119.833 69.5,121.167 69.5,122.5C 68.5016,86.6705 68.1682,50.6705 68.5,14.5C 67.925,10.8453 68.925,7.84534 71.5,5.5 Z"/></g>
<g><path style="opacity:1" fill="#567ffd" d="M 71.5,42.5 C 73.6672,43.6455 75.0005,45.4788 75.5,48C 78.3031,50.1275 81.1365,52.2942 84,54.5C 83.2564,56.1647 83.4231,57.8314 84.5,59.5C 84.2483,61.0729 83.5817,62.4062 82.5,63.5C 81.8333,63.5 81.1667,63.5 80.5,63.5C 80.7989,61.396 80.4656,59.396 79.5,57.5C 78.2836,56.9984 77.1169,56.6651 76,56.5C 75.479,53.1258 74.1457,50.1258 72,47.5C 71.5065,45.8659 71.3398,44.1992 71.5,42.5 Z"/></g>
<g><path style="opacity:1" fill="#5f88f2" d="M 70.5,11.5 C 70.2946,17.8778 70.6279,24.2111 71.5,30.5C 71.5,34.5 71.5,38.5 71.5,42.5C 71.3398,44.1992 71.5065,45.8659 72,47.5C 74.1457,50.1258 75.479,53.1258 76,56.5C 77.1169,56.6651 78.2836,56.9984 79.5,57.5C 80.4656,59.396 80.7989,61.396 80.5,63.5C 78.7806,65.5441 77.1139,67.5441 75.5,69.5C 73.1782,70.8021 71.8449,72.8021 71.5,75.5C 70.6618,75.8417 70.3284,76.5084 70.5,77.5C 70.1667,77.5 69.8333,77.5 69.5,77.5C 69.1693,55.327 69.5026,33.327 70.5,11.5 Z"/></g>
<g><path style="opacity:1" fill="#4b59fa" d="M 92.5,59.5 C 93.5,59.5 94.5,59.5 95.5,59.5C 95.5,63.5 95.5,67.5 95.5,71.5C 95.5,72.1667 95.5,72.8333 95.5,73.5C 94.7784,73.0825 94.2784,72.4158 94,71.5C 93.276,73.9589 91.9427,74.9589 90,74.5C 83.6,76.5624 77.9333,79.8958 73,84.5C 72.8333,82.8333 72.6667,81.1667 72.5,79.5C 72.973,75.9742 73.973,72.6409 75.5,69.5C 77.1139,67.5441 78.7806,65.5441 80.5,63.5C 81.1667,63.5 81.8333,63.5 82.5,63.5C 85.3989,61.266 88.7322,59.9326 92.5,59.5 Z"/></g>
<g><path style="opacity:1" fill="#4e66fc" d="M 75.5,69.5 C 73.973,72.6409 72.973,75.9742 72.5,79.5C 72.6667,81.1667 72.8333,82.8333 73,84.5C 77.9333,79.8958 83.6,76.5624 90,74.5C 91.9427,74.9589 93.276,73.9589 94,71.5C 94.2784,72.4158 94.7784,73.0825 95.5,73.5C 95.5,75.1667 95.5,76.8333 95.5,78.5C 94.7321,77.7375 94.2321,76.7375 94,75.5C 93.2607,77.2205 92.4274,78.8872 91.5,80.5C 90.8333,80.1667 90.1667,79.8333 89.5,79.5C 84.5725,81.9637 79.5725,84.4637 74.5,87C 73.8742,87.7504 73.3742,88.5838 73,89.5C 71.6908,84.9342 71.1908,80.2675 71.5,75.5C 71.8449,72.8021 73.1782,70.8021 75.5,69.5 Z"/></g>
<g><path style="opacity:1" fill="#5270fc" d="M 71.5,75.5 C 71.1908,80.2675 71.6908,84.9342 73,89.5C 73.3742,88.5838 73.8742,87.7504 74.5,87C 79.5725,84.4637 84.5725,81.9637 89.5,79.5C 90.1667,79.8333 90.8333,80.1667 91.5,80.5C 92.4274,78.8872 93.2607,77.2205 94,75.5C 94.2321,76.7375 94.7321,77.7375 95.5,78.5C 94.5313,79.3094 93.6979,80.3094 93,81.5C 92.8603,84.0432 92.1937,86.3766 91,88.5C 90.586,88.0426 90.086,87.7093 89.5,87.5C 83.4713,89.5964 77.9713,92.5964 73,96.5C 72.8019,94.6183 72.3019,92.9516 71.5,91.5C 70.7705,86.8696 70.4372,82.2029 70.5,77.5C 70.3284,76.5084 70.6618,75.8417 71.5,75.5 Z"/></g>
<g><path style="opacity:1" fill="#5478fb" d="M 95.5,71.5 C 95.8333,71.5 96.1667,71.5 96.5,71.5C 96.5,76.1667 96.5,80.8333 96.5,85.5C 96.5,86.1667 96.5,86.8333 96.5,87.5C 95.6981,88.9516 95.1981,90.6183 95,92.5C 94.4309,88.6395 93.5976,88.6395 92.5,92.5C 91.7065,92.0688 90.8732,91.7355 90,91.5C 86.5707,93.1975 83.0707,94.6975 79.5,96C 77.0087,98.8736 74.5087,101.04 72,102.5C 71.5014,98.8484 71.3347,95.1817 71.5,91.5C 72.3019,92.9516 72.8019,94.6183 73,96.5C 77.9713,92.5964 83.4713,89.5964 89.5,87.5C 90.086,87.7093 90.586,88.0426 91,88.5C 92.1937,86.3766 92.8603,84.0432 93,81.5C 93.6979,80.3094 94.5313,79.3094 95.5,78.5C 95.5,76.8333 95.5,75.1667 95.5,73.5C 95.5,72.8333 95.5,72.1667 95.5,71.5 Z"/></g>
<g><path style="opacity:1" fill="#5683fc" d="M 69.5,77.5 C 69.8333,77.5 70.1667,77.5 70.5,77.5C 70.4372,82.2029 70.7705,86.8696 71.5,91.5C 71.3347,95.1817 71.5014,98.8484 72,102.5C 74.5087,101.04 77.0087,98.8736 79.5,96C 83.0707,94.6975 86.5707,93.1975 90,91.5C 90.8732,91.7355 91.7065,92.0688 92.5,92.5C 93.5976,88.6395 94.4309,88.6395 95,92.5C 95.1981,90.6183 95.6981,88.9516 96.5,87.5C 96.5,89.5 96.5,91.5 96.5,93.5C 95.71,94.6085 95.21,95.9419 95,97.5C 94.6667,96.8333 94.3333,96.1667 94,95.5C 92.9563,96.6226 92.2896,97.9559 92,99.5C 91.6667,99.1667 91.3333,98.8333 91,98.5C 90.044,99.5786 89.2106,100.745 88.5,102C 85.5285,102.794 82.5285,103.461 79.5,104C 75.6596,109.853 72.6596,109.686 70.5,103.5C 70.8195,98.6367 70.4861,93.97 69.5,89.5C 69.5,85.5 69.5,81.5 69.5,77.5 Z"/></g>
<g><path style="opacity:1" fill="#5a8ffd" d="M 96.5,93.5 C 96.5,96.8333 96.5,100.167 96.5,103.5C 95.596,104.209 95.2627,105.209 95.5,106.5C 94.5416,106.953 93.7083,107.619 93,108.5C 92.6667,107.833 92.3333,107.167 92,106.5C 87.5018,109.89 82.6684,112.723 77.5,115C 75.5643,115.813 73.5643,116.313 71.5,116.5C 71.4135,112.143 71.0802,107.81 70.5,103.5C 72.6596,109.686 75.6596,109.853 79.5,104C 82.5285,103.461 85.5285,102.794 88.5,102C 89.2106,100.745 90.044,99.5786 91,98.5C 91.3333,98.8333 91.6667,99.1667 92,99.5C 92.2896,97.9559 92.9563,96.6226 94,95.5C 94.3333,96.1667 94.6667,96.8333 95,97.5C 95.21,95.9419 95.71,94.6085 96.5,93.5 Z"/></g>
<g><path style="opacity:0.321" fill="#dcedfe" d="M 98.5,42.5 C 99.6635,68.6635 99.8302,94.9968 99,121.5C 99.0618,125.377 97.5618,128.377 94.5,130.5C 97.1096,125.208 98.1096,119.542 97.5,113.5C 97.5,107.833 97.5,102.167 97.5,96.5C 98.4968,78.6744 98.8301,60.6744 98.5,42.5 Z"/></g>
<g><path style="opacity:1" fill="#5e95f5" d="M 69.5,89.5 C 70.4861,93.97 70.8195,98.6367 70.5,103.5C 71.0802,107.81 71.4135,112.143 71.5,116.5C 73.5643,116.313 75.5643,115.813 77.5,115C 82.6684,112.723 87.5018,109.89 92,106.5C 92.3333,107.167 92.6667,107.833 93,108.5C 93.7083,107.619 94.5416,106.953 95.5,106.5C 95.5,108.167 95.5,109.833 95.5,111.5C 93.0372,111.781 90.8705,112.781 89,114.5C 88.6667,114.167 88.3333,113.833 88,113.5C 82.8138,115.433 78.1472,118.1 74,121.5C 73.5831,120.244 72.7498,119.577 71.5,119.5C 71.1583,118.662 70.4916,118.328 69.5,118.5C 69.5,108.833 69.5,99.1667 69.5,89.5 Z"/></g>
<g><path style="opacity:1" fill="#5ea3fd" d="M 96.5,103.5 C 96.5498,108.552 96.0498,113.552 95,118.5C 92.9441,119.583 91.6108,121.25 91,123.5C 90.6924,122.692 90.1924,122.025 89.5,121.5C 84.5385,124.376 79.2052,126.043 73.5,126.5C 73.233,124.035 72.5664,121.701 71.5,119.5C 72.7498,119.577 73.5831,120.244 74,121.5C 78.1472,118.1 82.8138,115.433 88,113.5C 88.3333,113.833 88.6667,114.167 89,114.5C 90.8705,112.781 93.0372,111.781 95.5,111.5C 95.5,109.833 95.5,108.167 95.5,106.5C 95.2627,105.209 95.596,104.209 96.5,103.5 Z"/></g>
<g><path style="opacity:1" fill="#64aaf5" d="M 96.5,85.5 C 96.8333,85.5 97.1667,85.5 97.5,85.5C 97.5,89.1667 97.5,92.8333 97.5,96.5C 97.5,102.167 97.5,107.833 97.5,113.5C 96.4844,117.738 95.3177,122.071 94,126.5C 88.4653,132.6 81.9653,133.933 74.5,130.5C 71.3933,128.848 69.7266,126.181 69.5,122.5C 69.5,121.167 69.5,119.833 69.5,118.5C 70.4916,118.328 71.1583,118.662 71.5,119.5C 72.5664,121.701 73.233,124.035 73.5,126.5C 79.2052,126.043 84.5385,124.376 89.5,121.5C 90.1924,122.025 90.6924,122.692 91,123.5C 91.6108,121.25 92.9441,119.583 95,118.5C 96.0498,113.552 96.5498,108.552 96.5,103.5C 96.5,100.167 96.5,96.8333 96.5,93.5C 96.5,91.5 96.5,89.5 96.5,87.5C 96.5,86.8333 96.5,86.1667 96.5,85.5 Z"/></g>
<g><path style="opacity:0.902" fill="#7cb7e6" d="M 97.5,113.5 C 98.1096,119.542 97.1096,125.208 94.5,130.5C 93.8333,131.833 92.8333,132.833 91.5,133.5C 86.1667,134.833 80.8333,134.833 75.5,133.5C 74.8902,132.609 74.5569,131.609 74.5,130.5C 81.9653,133.933 88.4653,132.6 94,126.5C 95.3177,122.071 96.4844,117.738 97.5,113.5 Z"/></g>
<g><path style="opacity:0.549" fill="#ccecf9" d="M 75.5,133.5 C 80.8333,134.833 86.1667,134.833 91.5,133.5C 86.1667,137.5 80.8333,137.5 75.5,133.5 Z"/></g>
</svg>
